<svg xmlns="http://www.w3.org/2000/svg" viewBox="0 0 512 512" preserveAspectRatio="xMidYMid meet"><path fill="#fbc205" d="M5 87h502v338H5z"/><path fill="#d3021d" d="M9 334h494v87H9z"/><path fill="#d3021d" d="M9 91h494v87H9z"/><path fill="#d6d4d1" d="M5 87h502v338H5zm4 4v330h494V91z"/><path fill="#a61a1c" d="m159 204 2 1v5l3.688-1c3.184-.803 6.009-1.206 9.312-1l1 8h-3l2 4h2v-3l3-1c.692-1.847.692-1.847 1-4q.49-2.002 1-4c3.401.07 6.678.24 10 1 2.125 2.562 2.125 2.562 3 5l-2 1-1 3h-2l1 3h2v-2h3v3l3-2-2-1c-.812-2.375-.812-2.375-1-5 1-1.812 1-1.812 3-3 3.808-.423 6.325-.279 9.875 1.188 2.565 2.187 2.857 3.511 3.125 6.812l-2.938 1.375c-3.133 1.283-3.133 1.283-4.062 3.625l5-1c-1.238 3.714-2.852 4.774-6 7h-2l-1 6c-7.601 1.883-13.933 2-22 2v24l6 2c2.292 1.818 3.329 3.494 5 6v5h24q.12 6.25.188 12.5l.076 3.555c.069 8.18-.331 14.318-5.639 20.883-5.066 3.98-11.392 3.603-17.625 3.062-5.256-1.785-7.907-4.542-11-9v-4h-2l-.25 2.188c-1.147 4.299-3.521 6.732-6.812 9.624-4.531 1.832-9.109 1.592-13.938 1.188l-2-1v-38h-3v37c-6-5-6-5-6.589-8.505l.222-3.983.093-2.131c.104-2.234.251-4.462.399-6.693q.117-2.279.227-4.557c.183-3.713.405-7.422.648-11.131h-3v-9h-23v7c-2.312-.188-2.312-.188-5-1-1.978-2.44-3.031-3.945-2.938-7.125 1.681-3.361 4.147-4.548 7.54-5.949 4.133-1.126 7.828-1.183 12.086-1.114l2.298.002c3.253.026 5.909.151 9.014 1.186v-23l15-1-3-4v-2l-2.25-.688c-3.317-1.582-4.792-3.225-6.75-6.312l1-3-2-1c1.459-5.595 1.459-5.595 3.75-7.312 2.728-.834 5.426-1.303 8.25-1.688zm-1 6 1 2Zm1 2 1 2Z"/><path fill="#bb9e05" d="m159 204 2 1v5l3.688-1c3.184-.803 6.009-1.206 9.312-1l1 8h-3l2 4h2v-3l3-1c.692-1.847.692-1.847 1-4q.49-2.002 1-4c3.401.07 6.678.24 10 1 2.125 2.562 2.125 2.562 3 5l-2 1-1 3h-2l1 3h2v-2h3v3l3-2-2-1c-.812-2.375-.812-2.375-1-5 1-1.812 1-1.812 3-3 3.808-.423 6.325-.279 9.875 1.188 2.565 2.187 2.857 3.511 3.125 6.812l-2.938 1.375c-3.133 1.283-3.133 1.283-4.062 3.625l5-1c-1.238 3.714-2.852 4.774-6 7h-2l-1 6c-2.995.872-5.636 1.108-8.75 1.062l-2.422-.027L187 237v-1l7-1c-2.789-1.395-5.098-1.13-8.215-1.133l-3.767-.004-3.956.012-3.943-.012-3.771.004-3.469.004c-2.95.001-2.95.001-5.879 1.129l7 1v1c-3.053.294-5.956.435-9 0-2.562-2.375-2.562-2.375-4-5v-2l-2.25-.688c-3.317-1.582-4.792-3.225-6.75-6.312l1-3-2-1c1.459-5.595 1.459-5.595 3.75-7.312 2.728-.834 5.426-1.303 8.25-1.688zm-1 6 1 2Zm1 2 1 2Z"/><path fill="#a6261d" d="m195.227 274.902 3.125.01 3.273.025 3.297.014q4.04.018 8.078.05c.088 4.165.14 8.331.188 12.5l.076 3.553c.069 8.18-.331 14.318-5.64 20.883-5.064 3.981-11.391 3.604-17.624 3.063-5.255-1.785-7.906-4.543-11-9v-4h-2l-.375 2.437L176 307l-2 1v-20l11-3v7l2.813-.5C191 291 191 291 194 291l-.562-3.375C193 284 193 284 194 282l-7 1c.256-2.343.593-4.679 1-7 2.558-1.279 4.368-1.114 7.227-1.098M205 283l-1.75 2.75c-2.166 3.13-4.19 5.04-7.25 7.25l2.75-.5c3.25-.5 3.25-.5 7.25-.5v-9zm-19 0c2.875 1.125 2.875 1.125 6 3 1.375 3.187 1.375 3.187 2 6-4.692-1.482-4.692-1.482-6.187-4l-.813-2-2-2z"/><path fill="#c9c7c4" d="M178 238h34v37h-23l-2-7c-2.839-3.622-4.495-4.198-9-6z"/><path fill="#bca00f" d="M177 188h2v2h2v2h-2l2 3c.125 2.688.125 2.688 0 5h8l1-2c4.875 1.75 4.875 1.75 6 4 2.118.687 2.118.687 4.562 1.125l2.504.508L205 204l1-2c2.438.688 2.438.688 5 2l1 5-12-3-1.438 3.312-.808 1.864C196.61 213.943 196 215.979 196 219l3 1-1 2h-3v-3h-3v2l-3 1-1-4 3-1 2-3c-.634-2.022-.634-2.022-2-4-2.404-.916-2.404-.916-5.125-1.25l-2.758-.453L181 208l-1 8-4 1c-1.498-3.371-2-5.204-2-9l-1.828.438-2.422.562-2.391.562C165 210 165 210 161 210l-1-5c-1.033 1.982-1.033 1.982-1.785 4.07C157 211 157 211 154.941 211.617l-2.379.258c-2.408.357-2.408.357-4.562 1.125-2.147 2.952-2.147 2.952-3 6l3 1-1 3c-2.312-.562-2.312-.562-5-2-2.337-3.844-3.075-6.128-2.688-10.625 2.292-4.583 4.952-6.515 9.688-8.375 2.554-.43 5.035-.624 7.621-.754 2.667-.156 2.667-.156 6.004-1.808 4.159-1.772 6.902-1.673 11.375-1.438l.375-3.875c.375-3.875.375-3.875 2.625-6.125m35 21 2 1c1.274 7.179 1.274 7.179 0 11a70 70 0 0 1-4 1l-1 2h-5l1-3c2.562-1.188 2.562-1.188 5-2l.184-1.934.254-2.504.246-2.496C211 210 211 210 212 209m-40 7 4 1v3l-3 1v-2l-2-1z"/><path fill="#a1570e" d="M143 275h23l-3 1v39c-7 0-7 0-9-1v-38h-3v37c-6-5-6-5-6.589-8.505l.222-3.983.093-2.131c.104-2.234.251-4.462.399-6.693q.117-2.279.227-4.557c.183-3.713.405-7.422.648-11.131z"/><path fill="#b29207" d="M159 242h5l-2 8h2l-1-4h5v3l2 1v5h-2v10l2 1c-.988 2.48-.988 2.48-3 5-2.941.379-5.276.478-8.188.312l-2.271-.068A277 277 0 0 1 151 271v-6h2l-1-15h2l-1-4h5l-1 4h3z"/><path fill="#aa720b" d="M186 284c2.875.625 2.875.625 6 2 1.375 3.125 1.375 3.125 2 6-3.359-.999-4.753-1.651-6.812-4.562C186 285 186 285 186 284m-2 2c1 3 1 3 1 6l2.688-.562c3.236-.428 5.17-.066 8.312.562q3.003-.48 6-1l3 1v-6l1 2 2 1c.484 2.398.484 2.398.75 5.375l.297 2.961C209 300 209 300 207 303c-.633 2.113-.633 2.113-1 4h-3v3l-2-1-1 1c-5.017 2.27-7.872 1.846-13 0v-3l-4-1 .062-2.25c.051-2.626.051-2.626-.562-4.594-.586-2.528-.597-4.813-.562-7.406l.027-2.703L182 287zm1 8-2 6h2v2l3-1 1-3 2-2zm11 0 3 2v-2zm3 3 1.312 1.312L205 303v-9c-2.762 0-3.893 1.314-6 3"/><path fill="#cfb22a" d="m173 198 3 2c.188 3.625.188 3.625 0 7a872 872 0 0 1-5.25 1.5l-2.953.844C165 210 165 210 161 210l-1-5c-1.033 1.982-1.033 1.982-1.785 4.07C157 211 157 211 154.941 211.617l-2.379.258c-2.408.357-2.408.357-4.562 1.125-2.147 2.952-2.147 2.952-3 6l3 1-1 3c-2.312-.562-2.312-.562-5-2-2.337-3.844-3.075-6.128-2.688-10.625 2.291-4.582 4.952-6.518 9.688-8.375 2.576-.428 5.081-.623 7.688-.754 2.544-.134 2.544-.134 5.437-1.808 3.948-1.974 6.485-1.798 10.875-1.438m4 8h2v6h-3a99 99 0 0 1 0-5z"/><path fill="#a82519" d="m174 208 1 8h-3l-1 4h-2c.276 1.941.276 1.941 1 4l3 2c-3.367.23-5.414.339-8.375-1.375L163 223v-2l3-1 1-2h-3v-3h-2l1-5c3.823-1.423 6.913-2.24 11-2m-16 3c1.257 2.906 2 4.796 2 8l-2 2 3 1-1 4-1.938-.562L156 225l-1 1c-3 1-3 1-6.188-.438L146 224l1-4-2-1c1.448-5.55 1.448-5.55 3.688-7.375 3.143-.85 6.073-.75 9.312-.625m3 8h2v2h-2zm1 6 3 1-5 1zm-6 1 2 2-3-1z"/><path fill="#a91e1a" d="M181 208c3.401.07 6.678.24 10 1 2.125 2.562 2.125 2.562 3 5l-2 1-1 3h-2l1 3h2l-1 3-2.375-.5c-3.293-.627-5.421-.355-8.625.5l-1-3 5-2-1.875-.438C180 218 180 218 178 217zm24 3c2.875 1.188 2.875 1.188 5 3 .812 2.688.812 2.688 1 5l-2.938 1.375c-3.133 1.283-3.133 1.283-4.062 3.625l5-1v2l-7 2-.75-2.312c-1.03-2.783-1.03-2.783-3.312-4.188-1.938-1.5-1.938-1.5-2.876-4-.062-2.5-.062-2.5.938-4.312 3.095-1.838 5.47-1.553 9-1.188m-13 8h3v3l4-1v4l-5-1v-3h-2z"/><path fill="#cc6b78" d="M198 241c2.438.812 2.438.812 5 2l1 3h-2l.125 2.188c-.134 3.019-.877 5.081-2.125 7.812l3 3 4-3c-.312 1.875-.312 1.875-1 4l-3 2 1 9-4 1-1-4h3l-3-1c-.688-2.062-.688-2.062-1-4h-2l1 4-6 2v-2h-2l1-4h2l1 1 .375-1.938L194 260l2-1c-3.088-1.765-4.233-2-8-2l-1 3-1-2-2-1 2-3 4 1-2-1.875C186 251 186 251 186 249l-3-1v-3l5-1-1 4 7 1-3-4 7-2zm8 3h2l-2 12c-2-2-2-2-2.266-3.875l.016-2.125-.016-2.125C204 246 204 246 206 244"/><path fill="#c8c6c2" d="M177 302h2l1.188 3.25c1.561 3.655 3.441 5.559 6.812 7.75 3.422 1.141 6.087 1.098 9.688 1.062l3.574-.027L203 314c-2.155 2.155-3.4 2.637-6.25 3.562l-2.266.754c-11.903 3.276-25.842 2.82-37.484-1.316-2.359-1.605-2.359-1.605-4-3l2.852.141c7.565.286 7.565.286 14.773-1.641 3.014-3.173 4.716-6.48 6.375-10.5"/><path fill="#ad8b07" d="m121.652 228.867 3.285.008 3.277-.008C131 229 131 229 133 230c.125 2.375.125 2.375 0 5l-2 2 2 1c.22 3.97-.117 5.233-2 9h-12l-1-2 1-2h-2v-5h3l-1.563-1.75C117 234 117 234 117.25 231.812c1.153-2.786 1.25-2.787 4.402-2.945"/><path fill="#a82319" d="m240 262 3 2c-.75 6.625-.75 6.625-3 10h-4l-1-6c-3.821-1.228-7.512-1.133-11.5-1.125l-3.969-.008c-2.753.104-4.935.298-7.531 1.133v-8c8.952-2.734 19.476-1.651 28 2"/><path fill="#ad9006" d="M237 231c.625 1.875.625 1.875 1 4l-2 2 3 1c-.587 3.521-1.356 5.713-3 9h-12c-2-5-2-5-2-9l3-1-2-4c3.081-.857 6.068-1.269 9.25-1.562l2.703-.254z"/><path fill="#cbcac7" d="M131 282v20h-11a789 789 0 0 1-.125-7.375l-.051-2.117c-.017-1.837.073-3.674.176-5.508 2.871-2.871 6.863-5 11-5"/><path fill="#cbcac8" d="m225 282 11 4v16h-11z"/><path fill="#707e8c" d="m222.041 309.886 2.65.016 2.861.01 3.01.025 3.022.014q3.708.017 7.416.05v9h-22c0-8.946 0-8.946 3.041-9.115"/><path fill="#6a7b8c" d="m117.041 309.886 2.65.016 2.861.01 3.01.025 3.022.014q3.708.017 7.416.05v9h-22c0-8.946 0-8.946 3.041-9.115"/><path fill="#ac8608" d="m205 286 1 2 2 1c.484 2.398.484 2.398.75 5.375l.297 2.961C209 300 209 300 207 303c-.633 2.113-.633 2.113-1 4h-3v3l-2-1-1 1c-5.017 2.27-7.872 1.846-13 0v-3l-4-1v-6h2v2l3-2 3 1-3 2-1 3 5 1v2c2.511-1.255 2.871-2.501 4-5l2 4 2-2h3c-.695-3.071-.695-3.071-2.938-4.375-2.485-1.958-3.1-3.658-4.062-6.625 3.403 1.012 4.757 1.648 6.812 4.625L204 302l1-7-5-1c3-2 3-2 5-2zm-5 5 2 1Zm-1 4 3 1Zm-4 1h1v5h-1z"/><path fill="#af8c07" d="M164 256c3.301 2.583 3.39 4.992 4 9l2 1c-.988 2.48-.988 2.48-3 5-2.941.379-5.276.478-8.188.312l-2.271-.068A277 277 0 0 1 151 271v-5h3l1-8 3-1 2 3h3z"/><path fill="#a8221c" d="M131 270c3.875.875 3.875.875 5 2 .375 2.812.375 2.812 0 6-2.188 2.188-2.188 2.188-5 4l-2.312 1.562c-3.464 1.853-6.987 3.121-10.688 4.438v5h-3c-2-2-2-2-2.375-5.438.375-3.562.375-3.562 2.016-5.117 2.743-1.68 5.507-2.914 8.484-4.133l3.195-1.324C129 276 129 276 131 276z"/><path fill="#a25f0d" d="m159 204 2 1v5l2 1-1 4h2v3h3l-1 3h-3l2 4-5 1 1-4-5-1 1.5-1.125c2.157-2.697 1.762-4.475 1.5-7.875l-.562-3.812L158 205zm2 15v2h2v-2zm-7 4h2c1 3 1 3 0 6l2 1 1 4 9 2v1c-3.053.294-5.956.435-9 0-2.562-2.375-2.562-2.375-4-5v-2l-2.375-.812C150 228 150 228 148 225l6 1zm11 2c3.688.875 3.688.875 7 2l-3 1v2l-5 1-2-4zm-5 3 2 1Zm-2 4h5l1 2-6-1z"/><path fill="#a8211b" d="m225 270 .105 2.832c.562 3.415.562 3.415 3.696 4.742l3.511 1.114c4.117 1.341 7.379 2.477 10.688 5.312-.75 6.625-.75 6.625-3 10h-2v-6l-2.922-1.207-3.828-1.605-1.922-.792c-6.801-2.869-6.801-2.869-9.328-5.396-.528-2.761-.186-5.164 0-8 2-1 2-1 5-1"/><path fill="#a82319" d="m129 259 2 5 3-1v-3l3 1-1 5-16 1v7c-2.312-.188-2.312-.188-5-1-1.978-2.44-3.031-3.945-2.938-7.125 1.734-3.468 4.318-4.619 7.813-6.063 3.182-.827 5.853-.968 9.125-.812m8 0 3 1Z"/><path fill="#b37b17" d="M176 217c3.375-.125 3.375-.125 7 0l2 2-2 2h-4c1.255 2.511 2.501 2.871 5 4-1.688 2.5-1.688 2.5-4 5-2.75.312-2.75.312-5 0v-2l2-1-3-1.75-3-2.25v-4l5 1zm9 3 1 4-2-1zm1 4 2 1Zm6 2v6c-2.941.98-4.825 1.116-7.887 1.098l-2.842-.01-2.959-.026-2.994-.013q-3.659-.018-7.318-.049v-1l3.141-.184 4.109-.254 2.066-.119c3.328-.21 6.487-.462 9.684-1.443v-2l-3-1c3.067-1.862 4.597-2.215 8-1m0 6h3v2h-3z"/><path fill="#a91e1a" d="M181 208c3.401.07 6.678.24 10 1 2.125 2.562 2.125 2.562 3 5l-2 1-1 3h-2l1 3h2l-1 3-2.375-.5c-3.293-.627-5.421-.355-8.625.5l-1-3 5-2-1.875-.438C180 218 180 218 178 217zm11 11h3l-1 3-2-1z"/><path fill="#2e5f8e" d="M177.313 266.688c3.688.312 3.688.312 6.125 1.75 2.316 3.798 2.342 7.228 1.563 11.562-1.626 2.563-1.626 2.563-4 4-3.26.476-5.268.298-8.314-.937-2.669-3.262-2.514-6.959-2.687-11.063l1.313 1.938c1.6 2.33 1.6 2.33 4.688 3.062l1-5h-2v-3l-2-1c1-1 1-1 4.311-1.312M177 275c-2.334 2.781-2.334 2.781-1.626 5.688L176 283c1.984-.267 1.984-.267 4-1l1-3zm-5-6 1 3h-2z"/><path fill="#a35a0e" d="M189 279h19v8l-3-3-1.688 2.875c-2.375 3.21-3.494 4.221-7.312 5.125l-2-1c-1.286-6.429-1.286-6.429 0-9l-6 1z"/><path fill="#a55e1a" d="M192 221h2l1 3h4l2-2 2 4 5-1a141 141 0 0 1-5 5h-2l-1 6c-2.995.872-5.636 1.108-8.75 1.062l-2.422-.027L187 237v-1l7-1 1-3h-3c-.553-2.076-1-3.844-1-6l-3-2 3-1zm-8 3 4 2h-5zm5 8 3 1Z"/><path fill="#cbcac8" d="M225 247h11v14l-11-2z"/><path fill="#c5c2be" d="M120 247h11v12l-11 1z"/><path fill="#a91b1b" d="m174 208 1 8h-3l-1 4h-2v4h-5l-1-3 3-1 1-2h-3v-3h-2l1-5c3.823-1.423 6.913-2.24 11-2m-13 11h2v2h-2z"/><path fill="#c1bcb7" d="M225 266q2.469.21 4.938.438l2.777.246C235 267 235 267 236 268c.073 2.186.084 4.375.062 6.562l-.027 3.629L236 281a1485 1485 0 0 1-4.938-1.938l-2.777-1.089C226 277 226 277 225 276a91 91 0 0 1-.062-5.062l.027-2.786z"/><path fill="#c8aa1e" d="M157 206v5l-1.863.227c-2.512.408-4.758.862-7.137 1.773-2.147 2.952-2.147 2.952-3 6l3 1-1 3c-2.312-.562-2.312-.562-5-2-1.348-2.28-2.114-4.481-3-7h2l.062-2.312C142 209 142 209 145.188 207.25c8.3-3.006 8.3-3.006 11.812-1.25"/><path fill="#b89b09" d="M166 279c4.153 5.192 4.498 5.716 4.391 11.832l-.039 3.916-.102 4.064q-.03 2.062-.055 4.124A965 965 0 0 1 170 313l-5 2z"/><path fill="#cac8c5" d="M127.188 265.938 131 266v10c-8.75 4-8.75 4-11 4v-13c2.75-.916 4.36-1.108 7.188-1.062"/><path fill="#c2a605" d="M224 302h13c2 4 2 4 2 8h-17c1-5 1-5 2-8"/><path fill="#c5a905" d="m121.941 301.902 3.621.035 3.63.027L132 302l2 8h-17c1.138-7.972 1.138-7.972 4.941-8.098"/><path fill="#b99d15" d="m196 202 9 2 1-2c2.438.688 2.438.688 5 2l1 5-12-3-2 5-2-1 .562-2.312c.666-2.778.666-2.778-.562-5.688m16 7 2 1c1.274 7.179 1.274 7.179 0 11a70 70 0 0 1-4 1l-1 2h-5l1-3c2.562-1.188 2.562-1.188 5-2l.184-1.934.254-2.504.246-2.496C211 210 211 210 212 209"/><path fill="#c0a205" d="M142 267h1v9h3v30l-1-2h-2c-1.24-3.827-1.127-7.633-1.098-11.609l.005-2.203c.005-2.313.018-4.625.031-6.938l.013-4.715q.017-5.768.049-11.535"/><path fill="#c7ab05" d="M159 276h3v39h-3z"/><path fill="#c5a905" d="M151 276h3v38l-2 1c-2-2-2-2-2.135-5.624q.064-2.332.158-4.665l.076-2.48c.083-2.619.179-5.237.276-7.856q.088-2.66.172-5.32.211-6.528.453-13.055"/><path fill="#a9181b" d="M163 276h3v38l-3 1z"/><path fill="#a9181b" d="M155 276h3v39l-3-1z"/><path fill="#a7181c" d="M147 276h3v36c-4-4-4-4-4.362-7.392q.064-2 .19-3.999l.085-2.135c.093-2.243.214-4.483.337-6.724q.103-2.285.199-4.57c.162-3.728.35-7.454.551-11.18"/><path fill="#4b3326" d="M174 266h7v1h-7zm7 1 2 1Zm-8 2h2v3h2l-1 5-4-1-1-4h2zm12 2h1v9h-1zm-16 2h1v5h-1zm8 2 4 4-2 4h-3c-.625-2.312-.625-2.312-1-5zm6 6 1 2-2-1zm-10 2 2 1Zm2 1h6v1h-6z"/><path fill="#a91b1b" d="m178.063 232.813 3.877-.037 3.72-.007 3.394-.012c2.871.237 4.518.751 6.946 2.243-2.99 1.495-6.064 1.162-9.344 1.167-.725.005-1.45.007-2.197.012q-2.299.007-4.6.006c-2.35.002-4.7.02-7.05.04q-2.232.004-4.465.006l-2.137.022c-4.978-.024-4.978-.024-7.207-2.252 6.3-1.472 12.626-1.186 19.063-1.189"/><path fill="#a83e1a" d="M223 259v5h2v-4h3v6l-2.484.184-3.266.254-3.234.246c-2.453.257-4.655.634-7.016 1.316v-8c3.674-1.176 7.169-1.074 11-1"/><path fill="#9f5c1b" d="m178.875 235.813 2.372-.04c3.803-.006 5.509.065 8.753 2.227h-12v24h-1v-24h-34v-1c11.953-.55 23.909-1.093 35.875-1.187"/><path fill="#b08c08" d="M237 231c.625 1.875.625 1.875 1 4l-2 2 2 2h-15l2-2-2-4c3.081-.857 6.068-1.269 9.25-1.562l2.703-.254z"/><path fill="#bdb6af" d="M177 308c2.625 1.25 2.625 1.25 5 3v3l3 1-1 3c-4.996.999-8.313 1.12-13-1l-1-2h4v-3l1-3z"/><path fill="#ab740b" d="m205 286 1 2 2 1c.484 2.398.484 2.398.75 5.375l.297 2.961C209 300 209 300 207 303c-.633 2.113-.633 2.113-1 4l-3-1-1-3c-1.5-1.667-1.5-1.667-3-3l2-2 2 2h1l1-5-5-1c3-2 3-2 5-2zm-5 5 2 1Zm-1 4 3 1Zm1 11 3 1Z"/><path fill="#fbc205" d="M192.375 202.688C194 204 194 204 194.75 206.626L195 209c-3.547 1.251-5.723.722-9.25-.437l-2.703-.871L181 207v-4c3.601-1.8 7.575-1.412 11.375-.312"/><path fill="#f9c105" d="m173 202 1 5a456 456 0 0 1-4.25 1.5l-2.391.844C165 210 165 210 161 210c-.25-2.312-.25-2.312 0-5 3.29-3.976 7.245-3.238 12-3"/><path fill="#ae7a0a" d="m121.75 228.77 3.25.043 3.25.019C131 229 131 229 133 230l-1 5-1.793-.253c-4.306-.555-7.963-.98-12.207.253-.625-1.875-.625-1.875-1-4 2-2 2-2 4.75-2.23"/><path fill="#bab2ab" d="M131 282v20h-4v-19c2-1 2-1 4-1"/><path fill="#ab8615" d="M193 202c3.875 1.75 3.875 1.75 5 4a93 93 0 0 1-1 4v3l-1 3v3l3 1-1 2h-3v-3h-3v2l-3 1-1-4 3-1c2.307-2.715 2.307-2.715 1.625-5.188L192 210l2-1z"/><path fill="#f5c10c" d="M200 205c4.747.934 8.354 1.658 12 5l-1 4-2.562-.938c-3.488-1.077-6.82-1.628-10.438-2.062.875-4.875.875-4.875 2-6m11 1 3 1v2h-2z"/><path fill="#b59c12" d="M177 188h2v2h2v2h-2l2 3c-.375 3.188-.375 3.188-1 6l-3 1-1 3c-1.787-6.061-2.35-10.062 0-16z"/><path fill="#c8c4bc" d="M182 312c2.763.523 5.326 1.109 8 2 2.228.069 4.458.085 6.688.062l3.574-.027L203 314c-5.03 5.03-13.24 5.463-20 6l2-5-4-1z"/><path fill="#cab03b" d="M158 203c.625 1.812.625 1.812 1 4l-2 3-2-4-3.75.938c-2.143.535-4.271 1.066-6.438 1.5-2.032.411-2.032.411-3.062 2.624L141 213l-2-1c1.734-4.487 3.605-7.126 7.949-9.387 3.73-1.115 7.304-.395 11.051.387"/><path fill="#bfa20c" d="m174 288 4 1c.554 13.818.554 13.818-3 19h-1z"/><path fill="#2e5f8e" d="M170 274h2l1 2 3 2c.188 2.625.188 2.625 0 5l3-1 1-3-1-2h4l1-3h1c.322 3.537.413 5.396-1.625 8.375-3.07 2.1-4.721 2.158-8.375 1.625-2.312-1.062-2.312-1.062-4-3-.75-3.688-.75-3.688-1-7"/><path fill="#a62e17" d="M176 217c3.375-.125 3.375-.125 7 0l2 2-2 2h-4l2 5c-3.29.224-5.423.304-8.375-1.25C171 223 171 223 171 219l5 1z"/><path fill="#bfa305" d="M199 227c0 3 0 3-1 5h2v4c-2.995.872-5.636 1.108-8.75 1.062l-2.422-.027L187 237v-1l7-1 1-3h-3l-1-4c4.625-2.125 4.625-2.125 8-1m-10 5 3 1Z"/><path fill="#a7511c" d="M123 259h6l2 5 3-1v-3l3 1-1 5q-2.406.079-4.812.125l-2.708.07C126 266 126 266 123 264c-.188-2.625-.188-2.625 0-5m14 0 3 1Z"/><path fill="#bab2ac" d="m232 285 4 1v16h-4z"/><path fill="#f9c105" d="M157 206v5l-1.863.402-2.449.536-2.426.527c-2.407.534-2.407.534-5.262 1.535-.25-2.312-.25-2.312 0-5 3.061-3.296 7.8-5.1 12-3"/><path fill="#9e1b1d" d="m185 294 6 2a125 125 0 0 1-4 6h-2l1-5h-2zm7 0 2 1Zm4 0h3l-1 2zm10 1-1 8c-2.275-2.167-4.158-4.456-6-7 3.625-2.125 3.625-2.125 7-1m-12 0 2 1Z"/><path fill="#c7ab05" d="M222 238h17l-1 5h-15z"/><path fill="#b19207" d="m194 279 2 1Zm8 1v2l-2.375-.125c-2.786-.162-2.786-.162-4.625 2.125l-1-3c4.625-2.125 4.625-2.125 8-1m-11 0 3 1Zm17-1v8l-2-1c-.625-2.562-.625-2.562-1-5l-3-1c2.076-.553 3.844-1 6-1m-20 2 3 1Zm7 6 1 4Z"/><path fill="#b8b0a9" d="M232 247h4v14l-6-1 2-1z"/><path fill="#c6c3bf" d="M202 246h2l2 12-3 2-4-4z"/><path fill="#b59a11" d="M154 223h2c1 3 1 3 0 6l2 1 1 4 9 2v1c-3.053.294-5.956.435-9 0-2.562-2.375-2.562-2.375-4-5v-2l-2.375-.812C150 228 150 228 148 225l6 1zm4 9 2 1Z"/><path fill="#ccb031" d="m196 202 9 2 1-2 5 2v2h-2l-1 2-8-2-2 5-2-1 .562-2.312c.666-2.778.666-2.778-.562-5.688"/><path fill="#ba9b13" d="M169 220h2l1 3q1.988 1.025 4 2l2 3c-5.415 3.077-5.415 3.077-8.375 2.688L168 230l1-2-3-2 4-1-2-1z"/><path fill="#c7ab05" d="M117 239h15v3l-15 1z"/><path fill="#b6aca4" d="M136 312v2h-12v-2c4.084-1.532 7.795-.631 12 0m0 3v2h-13c5.406-2.703 7.007-2.999 13-2"/><path fill="#a7710b" d="M153 246h5l-1 5h-2v2l2 1-5 1v-5h2zm0 9h1v11l-3-1h2z"/><path fill="#aa181c" d="M196 296c2 1 2 1 2.938 2.938 1.015 2.382 1.015 2.382 4.062 4.062v3l-6 3c-1.102-4.409-1.077-8.484-1-13"/><path fill="#9d8415" d="m162 222 3 3h-3zm3 3c3.688.875 3.688.875 7 2l-3 1v2l-5 1-2-4zm-5 3 2 1Zm0 4 4 1-4 1z"/><path fill="#b6aca4" d="M127 266h4v10l-4 1z"/><path fill="#4d687f" d="m230.563 315.875 3.379-.008c2.55.111 4.633.386 7.058 1.133v2h-22v-2c3.909-.921 7.55-1.134 11.563-1.125"/><path fill="#4f697e" d="m125.563 315.875 3.378-.008c2.55.111 4.635.386 7.06 1.133v2h-22v-2c3.907-.921 7.55-1.134 11.561-1.125"/><path fill="#ab790a" d="M183 300h2v2l3-2 3 1-3 2-1 3 5 1v2l-5 1v-3l-4-1z"/><path fill="#aa181c" d="M193 297c1.327 3.981 1.069 7.85 1 12h-2v-2l-5-1c.312-1.938.312-1.938 1-4l3-1c1.209-2 1.209-2 2-4"/><path fill="#b29506" d="m122 232 1 2 2.25-.688c2.75-.312 2.75-.312 5.062 1.126L132 236c-3.696 2.464-5.631 2.075-10 2-1.676.285-3.348.6-5 1l3-1-1-3h3z"/><path fill="#a44c11" d="M224 232h12v4h-12z"/><path fill="#a6700b" d="M192 230v2c-2.941.98-4.825 1.116-7.887 1.098l-2.842-.01-2.959-.026-2.994-.013q-3.659-.018-7.318-.049v-1l3.105-.184 4.083-.254 2.041-.119c4.996-.316 9.779-1.443 14.771-1.443m0 2h3v2h-3z"/><path fill="#b6ada5" d="m233 311 8 1v2l-9-1zm8 4v2h-13c5.406-2.703 7.007-2.999 13-2"/><path fill="#a01a1d" d="M205 283c1.478 2.957 1.06 5.742 1 9h-4a221 221 0 0 0-6 1l2.25-1.625c2.927-2.528 4.736-5.093 6.75-8.375m-11 8 2 1Z"/><path fill="#af8209" d="m194 215 2 1v3l3 1-1 2h-3v-3h-3v2l-3 1-1-4a101 101 0 0 1 6-3"/><path fill="#c9ae17" d="m164 228-1 4h-5v-2l-3-1c3.351-2.11 5.221-2.05 9-1m-1 4 3 1Zm-5 1 2 1Z"/><path fill="#33608c" d="m170 315 1.758.254c4.665.608 8.596.818 13.242-.254l-1 3c-4.996.999-8.313 1.12-13-1z"/><path fill="#a35d0e" d="m200 280 2 1Zm-3 1 2 1Zm5 0h3l-1 2zm-3 1 3 1Zm1 3 2 1c-.188 1.875-.188 1.875-1 4-2.562 1.25-2.562 1.25-5 2 2.875-5.875 2.875-5.875 4-7"/><path fill="#4d3427" d="M174 266h7v1h-7zm7 1 2 1Zm-8 2h2l1 5-4 1-1-3h2z"/><path fill="#c5aa0f" d="m190 226-3 2 1 3-7 1v-4l-2-1c3.674-1.176 7.169-1.074 11-1"/><path fill="#a8630d" d="M192 221h2l2 5c-1.75.688-1.75.688-4 1-2.25-1.438-2.25-1.438-4-3l3-1zm-8 3 4 2h-5z"/><path fill="#b89706" d="m159 204 2 1v5l2 1-1 3c-3.919-3.307-3.919-3.307-4.312-6.688C158 205 158 205 159 204"/><path fill="#ab8f13" d="m179 194 2 1-1 6-3 1-1 3-1-7 4-1z"/><path fill="#aa7d09" d="M167 250h3v5l-6-1 3-1zm-2 5h3v7l-2-1c-.625-3.062-.625-3.062-1-6"/><path fill="#c5a708" d="m230 227 1 3h4v2h-4l-1 2v-2l-4 1v-2l-2-1 2.438-.375L229 229zm-7 4v3Z"/><path fill="#a7760a" d="m174 208 2 1c.625 3.062.625 3.062 1 6l-2 1zm-2 8 4 1v3l-3 1v-2l-2-1z"/><path fill="#b99d06" d="M119 302h13v2l-13 1z"/><path fill="#aa181c" d="M197 294h2l-1 2zm9 1-1 8c-2.275-2.167-4.158-4.456-6-7 3.625-2.125 3.625-2.125 7-1"/><path fill="#af800d" d="m231 261 1.188 1.562L234 264c2.655-.23 2.655-.23 5-1v5h-2v-2l-6 1a89 89 0 0 1-1-5z"/><path fill="#aa181c" d="M129 259h8l-3 1 1 4-5 1zm2 1 1 2Zm4 1 2 1Z"/><path fill="#a87b09" d="M143 214h3l-1 5 3 1-1 3-5-2z"/><path fill="#b89706" d="M184 286c1 3 1 3 1 6l3 2-3 1v3h-2l-1 2v-13z"/><path fill="#aa181c" d="M196 282h8l-2.375 2.25c-2.19 2.294-3.452 3.872-4.625 6.75-1.065-3.196-1.074-5.657-1-9"/><path fill="#b6ada5" d="M206 244h2q-.423 2.221-.875 4.438l-.492 2.496L206 253l-2 1c-.195-6.055-.195-6.055 0-8zm-4 1 2 1Z"/><path fill="#aa181c" d="M186 285c1.894 1.894 3.42 3.845 5 6l-6 2-1-4h2z"/><path fill="#483124" d="M181 269c1.562 1.188 1.562 1.188 3 3-.312 2.688-.312 2.688-1 5h-3c-.625-2.312-.625-2.312-1-5z"/><path fill="#b59706" d="m195 232 2 1-2 1zm4 0 1 4c-2.995.872-5.636 1.108-8.75 1.062l-2.422-.027L187 237v-1l1.863-.367 2.449-.508 2.426-.492c2.515-.578 2.515-.578 5.262-2.633"/><path fill="#a62d17" d="M118 230h3l1 5-5-1zm4 0h2l-1 3z"/><path fill="#b28908" d="M155 230h3l1 4 9 2v1c-3.053.294-5.956.435-9 0-2.562-2.375-2.562-2.375-4-5zm3 2 2 1Z"/><path fill="#a72918" d="M126 230h2l-1 4zm4 0h3l-1 5-4-1z"/><path fill="#d1b647" d="m145 204 2 1-1 4h-3l-2 4-2-1c2.625-5.75 2.625-5.75 6-8"/><path fill="#c9b552" d="m175 203 1 4h-2zm2 3h2v6h-3a99 99 0 0 1 0-5zm-5 1 2 1Z"/><path fill="#90842b" d="M192 226v4h-5v-2l-3-1c3.067-1.862 4.597-2.215 8-1"/><path fill="#aa181c" d="M194 282v9c-2-2-2-2-3-5l-3-1v-2c3-1 3-1 6-1"/><path fill="#cdb64b" d="m163 199 1 3-6 3v-2l-4-1zm-2 4 1 2-2-1z"/><path fill="#a91d1a" d="M223 259h7l-1 3-1-2-2 1c-.652 2.025-.652 2.025-1 4l-2-1z"/><path fill="#a9670d" d="M177 220h2l2 6h-6c.506-2.169 1-4 2-6"/><path fill="#be8043" d="m177 309 3 2-2 4-3-1v-4z"/><path fill="#a73e14" d="m204 220 2 1-2 3 5-1v2l-7 2v-6z"/><path fill="#bc9d06" d="M212 220v2h-2l-1 2h-5l1-3c3-1 3-1 7-1"/><path fill="#caae31" d="m189 198 6 2v2h-2l-1 2-4-3z"/><path fill="#c8ac14" d="m193 227 3 1-1 4h-3l-1-4zm-4 5 3 1Z"/><path fill="#543724" d="m177 275 4 4-2 4-2-1c-1.044-3.133-.934-3.99 0-7"/><path fill="#a1570f" d="M194 296h1l1 8h-3zm0 8 1 4Z"/><path fill="#5c5047" d="m164 256 3 3-1 3h-3a99 99 0 0 1 0-5z"/><path fill="#2f5c87" d="M159 266h3l1 4-4 1z"/><path fill="#a53915" d="M231 232h5v4c-1.938-.312-1.938-.312-4-1z"/><path fill="#a1570f" d="M158 219h3v2l2 1-2 2v-2l-5-1z"/><path fill="#c7ab05" d="m162 229 2 2c-1 1-1 1-3.562 1.062L158 232zm1 3 3 1Zm-5 1 2 1Z"/><path fill="#68705e" d="m179 194 2 1-1 5-5-1 4-2z"/><path fill="#b9a98b" d="M182 314c-1.188 1.562-1.188 1.562-3 3-2.688-.312-2.688-.312-5-1l1-2c4.475-1.262 4.475-1.262 7 0"/><path fill="#734d1c" d="M174 269c2 3 2 3 2 5l-4 1c0-3 0-3 2-6"/><path fill="#ab770a" d="m216 259 2 1h2l-1 5-4-4z"/><path fill="#a24a11" d="M158 242c2 2 2 2 2.125 5.125L160 250h-3z"/><path fill="#9e844b" d="M198 241c4.875 1.75 4.875 1.75 6 4l-3 1c-1.5-1.375-1.5-1.375-3-3z"/><path fill="#ac8608" d="M159 242h5l-2 4h-2z"/><path fill="#4e6b88" d="M181 315h4l-1 3h-5z"/><path fill="#aa181c" d="m235 261 4 1-3 3-3-1z"/><path fill="#394f69" d="M156 257h2v5h-3z"/><path fill="#bb9b06" d="m208 226-5 3-2-2c3.625-2.125 3.625-2.125 7-1"/><path fill="#c6aa0a" d="M177 212h2l1 4-4 1z"/><path fill="#ac8b07" d="m164 267 4 2-1 2-4-1z"/><path fill="#ac7f11" d="m120 260 2 4h-2l-1 2-1-4h2z"/><path fill="#cc6b78" d="M206 244h2c-.375 2.438-.375 2.438-1 5l-2 1a99 99 0 0 1 0-5z"/><path fill="#ad9007" d="M165 230q3.51.43 7 1c-1.75 1.125-1.75 1.125-4 2-2.25-.875-2.25-.875-4-2z"/><path fill="#bda005" d="m180 217 5 1-2 2h-4z"/><path fill="#aa6b62" d="m194 244 2 1v3l-5-2z"/><path fill="#a8730b" d="m200 228 3 1-2 3h-3z"/><path fill="#caae24" d="M169 228h4l-1 3-4-1z"/><path fill="#bea205" d="m149 221 4 1-1 2h-4z"/><path fill="#c2a605" d="M143 220h5l-1 3-4-1z"/><path fill="#c2a605" d="M176 217v3l-3 1v-2l-2-1c2-1 2-1 5-1"/><path fill="#b1950f" d="m193 202 4 2-1 3c-1.5-1.375-1.5-1.375-3-3z"/><path fill="#ad9007" d="m159 204 2 2h-3z"/><path fill="#ac7b0a" d="m127 260 4 2v2l-3-1z"/><path fill="#af9206" d="m207 205 2 1Zm2 1 3 1v2l-3-1z"/><path fill="#e9b905" d="m236 287 3 1-2 4z"/><path fill="#c1a505" d="m196 219 3 1-1 2h-3z"/><path fill="#b89c06" d="m148 204 4 1-5 2z"/><path fill="#2e5f8e" d="m194 292 3 1-1 2-3-1z"/><path fill="#bda005" d="m177 276 1 3 2 1-3 1-1-2z"/><path fill="#b4810a" d="m181 270 2 4-2 2c-1-3-1-3 0-6"/><path fill="#c3a705" d="M160 219v3l-4-2c2-1 2-1 4-1"/><path fill="#c3a705" d="M164 218h3l-1 3h-2z"/><path fill="#c3a705" d="m161 215 2 1v2l-3 1z"/><path fill="#c3a705" d="m194 215 2 1v2l-4-1z"/><path fill="#a9730b" d="m206 303 1 3h-3z"/><path fill="#c7ab05" d="m205 221 2 1v2h-3z"/></svg>