<svg xmlns="http://www.w3.org/2000/svg" viewBox="0 0 512 512" preserveAspectRatio="xMidYMid meet"><path fill="#ff4b55" d="M49.446 87.492q2.787-.007 5.574-.019c5.08-.017 10.161-.008 15.241.004 5.489.01 10.978-.005 16.467-.016 10.742-.018 21.485-.014 32.228-.002a17597 17597 0 0 0 29.966.004q3.79-.001 7.581-.004c23.009-.01 46.018 0 69.027.021q31.482.029 62.963-.002a50634 50634 0 0 1 78.354-.013l3.753.002q13.08.003 26.16-.012 15.944-.017 31.889.013c5.421.01 10.842.015 16.263.001q7.45-.017 14.9.016 2.689.007 5.378-.007c13.42-.068 24.956 1.035 35.548 10.178 9.169 9.502 11.567 18.838 11.529 31.59l.014 3.41c.013 3.766.011 7.533.009 11.3q.008 4.053.021 8.107.023 9.866.023 19.73.002 8.024.011 16.045.027 22.764.026 45.528v2.478l-.001 2.48c0 13.262.019 26.523.047 39.784q.043 20.445.041 40.89c-.001 7.645.004 15.292.026 22.94q.029 9.765.009 19.533-.012 4.979.011 9.956c.015 3.607.006 7.213-.01 10.82l.032 3.142c-.1 10.631-3.347 19.308-10.257 27.384-11.249 11.037-24.541 11.67-39.354 11.615q-2.784.007-5.566.016c-5.088.014-10.175.01-15.262.003-5.491-.005-10.982.008-16.473.018-10.753.017-21.506.018-32.259.013q-13.111-.006-26.224.002l-3.77.003-7.583.004q-25.456.016-50.914.007h-2.01l-16.161-.009q-31.51-.014-63.021.021-35.423.042-70.844.032-18.749-.006-37.496.017-15.961.023-31.922-.003c-5.427-.008-10.854-.01-16.282.005q-7.458.02-14.917-.01a644 644 0 0 0-5.384.01c-13.427.072-24.966-1.025-35.565-10.173-9.169-9.502-11.567-18.838-11.529-31.59l-.014-3.41c-.013-3.767-.011-7.533-.01-11.3q-.007-4.053-.02-8.107c-.017-6.577-.022-13.154-.023-19.73q-.002-8.023-.012-16.045-.026-22.764-.025-45.528v-2.478l.001-2.48c0-13.262-.019-26.523-.047-39.785q-.043-20.443-.041-40.888.004-11.47-.026-22.94a3975 3975 0 0 1-.009-19.534q.01-4.978-.011-9.956c-.015-3.607-.006-7.213.009-10.819l-.031-3.143C-.413 114.627 3.781 105.61 12 97.001c10.184-9.824 24.252-9.58 37.446-9.509"/><path fill="#73ae00" d="M46.59 87.546q2.295 0 4.588-.002c4.113-.001 8.225.022 12.338.05 4.312.026 8.624.028 12.936.033 8.149.012 16.298.045 24.447.085 9.284.045 18.568.067 27.852.087 19.084.042 38.166.112 57.249.2q.034 17.187.052 34.37.007 7.98.024 15.958.015 7.693.019 15.386.004 2.943.01 5.884.01 4.106.009 8.21l.01 2.484c-.01 5.595-.01 5.595-1.124 6.709a239 239 0 0 1-5.471.594c-20.705 1.983-37.077 9.582-51.53 24.406l-2.014 1.988c-14.495 15.246-19.508 35.847-19.192 56.317.729 22 10.79 40.119 26.352 55.187 13.684 12.019 31.577 18.488 49.66 19.332C185 335 185 335 186 336c.095 2.739.126 5.453.114 8.192v2.6q-.003 4.279-.016 8.556l-.004 5.914q-.007 7.8-.025 15.6-.014 7.953-.02 15.906-.017 15.615-.05 31.232-30.001.142-60.006.207c-9.288.02-18.576.049-27.864.095q-12.15.061-24.3.074c-4.285.006-8.57.018-12.855.047q-6.062.04-12.124.03-2.214 0-4.426.024c-12.605.125-23.392-1.701-33.162-10.133-9.17-9.502-11.567-18.838-11.53-31.59l-.013-3.41a2837 2837 0 0 1-.01-11.3 8650.53 8650.53 0 0 1-.044-27.837q0-8.022-.01-16.045-.027-22.764-.026-45.528v-4.958c.002-13.262-.017-26.523-.046-39.784q-.042-20.445-.041-40.89c0-7.645-.004-15.292-.026-22.94q-.028-9.765-.01-19.533.013-4.979-.01-9.956c-.015-3.607-.006-7.213.01-10.82l-.031-3.142C-.413 114.628 3.78 105.609 12 97c9.355-9.023 22.315-9.583 34.59-9.454"/><path fill="#fee059" d="M234 193c17.089 13.74 28.045 32.301 30.527 54.227 1.937 21.263-3.672 42.541-17.254 59.222C233.958 321.953 215.499 332.765 195 335c-21.846 1.29-42.686-2.524-59.859-17.043L133 316l-2.703-2.426c-15.503-14.634-24.007-33.984-24.651-55.279-.214-23.403 7.929-42.868 24.166-59.545C157.864 171.007 202.929 169.388 234 193"/><path fill="#fe4f55" d="m153.74 211.224 2.313-.032a412 412 0 0 1 7.541.01q2.628-.004 5.256-.016c3.668-.01 7.336.004 11.005.032 4.698.034 9.394.015 14.092-.021 3.617-.022 7.234-.015 10.851 0q2.598.007 5.195-.014c2.424-.016 4.844.008 7.267.04l2.16-.036c2.738.07 4.937.32 7.147 2.016 2.903 3.196 4.058 5.799 4.048 10.062l.028 3.036-.049 3.238v3.386a728 728 0 0 1-.052 7.086 785 785 0 0 0-.034 10.743q-.016 3.456-.039 6.91v3.202c-.22 14.133-3.949 25.482-13.657 35.884-10.198 9.7-21.223 12.782-34.992 12.563-12.823-1.05-23.06-7.44-31.312-17.051-6.278-7.792-9.56-16.592-9.7-26.6l-.05-3.155c-.044-4.733-.085-9.465-.108-14.198a890 890 0 0 0-.082-7.487 975 975 0 0 1-.092-10.818l-.068-3.371.008-3.166-.024-2.767c1.701-7.554 6.15-9.6 13.348-9.476"/><path fill="#f2f1f1" d="M159 229h53l.25 19.875.11 6.21c.115 10.999.071 20.194-7.61 28.79-7.344 6.526-13.28 7.797-23.18 7.512-7.288-.79-11.82-3.845-16.57-9.387-5.166-7.085-6.295-12.101-6.195-20.676l.006-2.486c.01-3.051.038-6.101.064-9.15z"/><path fill="#4b51a0" d="M164 254h12c.37 9.499.37 9.499-1.324 11.793C173 267 173 267 170 267.5c-3-.5-3-.5-4.875-2.5-1.466-3.91-1.337-6.84-1.125-11"/><path fill="#43499c" d="M180 272h11c.25 9.625.25 9.625-2 13-3.078.393-5.092.648-7.68-1.199-2.522-3.441-1.48-7.703-1.32-11.801"/><path fill="#43499c" d="M195 254h11c.25 9.625.25 9.625-2 13-6.75-.75-6.75-.75-9-3-.275-3.349-.086-6.635 0-10"/><path fill="#42489b" d="M180 254h11c.37 9.508.37 9.508-1.355 11.801-2.341 1.706-3.818 1.623-6.645 1.199-1.645-1.199-1.645-1.199-3-3-.399-3.376-.133-6.588 0-10"/><path fill="#42489b" d="M180 236h11c.37 9.508.37 9.508-1.355 11.801-2.341 1.706-3.818 1.623-6.645 1.199-1.645-1.199-1.645-1.199-3-3-.399-3.376-.133-6.588 0-10"/><path fill="#ffe15a" d="M211 284c2.688.875 2.688.875 5 2v5c-2.312 1.125-2.312 1.125-5 2l-3-2c-.375-2.5-.375-2.5 0-5z"/><path fill="#ffe15a" d="M220.438 251.813C223 252 223 252 225 254c-.555 4.554-.555 4.554-2 6-2.5.124-2.5.124-5 0-1-1-1-1-1.125-4 .163-3.927.163-3.927 3.563-4.188"/><path fill="#ffe15a" d="M150 216.875c3 .125 3 .125 4 1.125.188 2.437.188 2.437 0 5l-2 2c-4.556-.556-4.556-.556-6-2-.125-2.5-.125-2.5 0-5 1-1 1-1 4-1.125"/><path fill="#ffe15a" d="M158 284c2.438.812 2.438.812 5 2l1 3c-1.438 2.188-1.438 2.188-3 4l-5-1c-.688-2.312-.688-2.312-1-5 1.438-1.812 1.438-1.812 3-3"/><path fill="#ffe15a" d="M185.625 216.875 188 217l2 4-3 4-5-1c-.625-2.375-.625-2.375-1-5 2-2 2-2 4.625-2.125"/><path fill="#ffe15a" d="M148 252c2.625.375 2.625.375 5 1 .625 2.375.625 2.375 1 5l-2 2c-2.625-.375-2.625-.375-5-1-.625-2.375-.625-2.375-1-5z"/><path fill="#ffe15a" d="M220.438 216.813C223 217 223 217 225 219c-.375 2.624-.375 2.624-1 5-2.375.624-2.375.624-5 1-2-2-2-2-2.187-4.564.252-3.276.348-3.373 3.625-3.625"/></svg>