<svg xmlns="http://www.w3.org/2000/svg" viewBox="0 0 512 512" preserveAspectRatio="xMidYMid meet"><path fill="#fe4e58" d="m13.441 87.37 2.581-.021c2.868-.018 5.735-.001 8.603.016q3.107-.008 6.215-.023c5.702-.021 11.405-.011 17.107.005 6.146.01 12.292-.007 18.438-.02 11.348-.021 22.695-.02 34.043-.006q15.723.02 31.447.01l2.106-.001 8.461-.005c26.47-.015 52.937-.001 79.406.026q35.286.033 70.572-.003c26.42-.026 52.84-.037 79.258-.022l8.447.005h2.101c10.476.007 20.953 0 31.43-.012q17.866-.023 35.731.016c6.081.013 12.161.018 18.242.002q8.341-.022 16.683.02 3.026.008 6.05-.01c2.733-.015 5.464 0 8.197.024l2.396-.035c3.892.066 5.861.53 9.033 2.848 2.276 3.186 2.638 4.639 2.641 8.509l.04 3.462-.034 3.789q.008 2.018.023 4.036c.021 3.697.011 7.392-.005 11.088-.01 3.987.007 7.973.02 11.959.023 7.809.018 15.618.003 23.427q-.016 9.52-.007 19.037l.002 2.736.005 5.5c.014 17.2-.002 34.4-.029 51.6q-.031 22.144.005 44.288a21491 21491 0 0 1 .017 56.894l-.002 2.724c-.005 6.339.003 12.678.014 19.018q.023 11.585-.016 23.17c-.013 3.943-.018 7.884-.002 11.826q.021 5.411-.02 10.822a428 428 0 0 0 .026 5.777l-.04 3.462-.002 2.987c-.908 3.919-2.395 5.344-5.627 7.705-3.005.49-5.44.674-8.44.629l-2.583.022c-2.868.019-5.735 0-8.603-.016a3221 3221 0 0 0-6.214.024c-5.703.02-11.405.01-17.108-.005-6.146-.011-12.292.006-18.438.02-11.347.02-22.695.019-34.042.005q-15.724-.019-31.447-.01h-2.106q-4.23.005-8.462.006c-26.468.016-52.937.002-79.405-.025a34586 34586 0 0 0-70.572.002q-39.63.042-79.259.022l-8.446-.005-2.1-.001q-15.717-.008-31.43.014-17.868.022-35.732-.017c-6.08-.013-12.16-.018-18.242-.001q-8.34.02-16.684-.02a678 678 0 0 0-6.05.009c-2.733.015-5.463 0-8.196-.024l-2.396.036c-3.892-.067-5.86-.53-9.033-2.848-2.276-3.187-2.638-4.64-2.64-8.51l-.04-3.461.033-3.79q-.009-2.018-.024-4.036c-.02-3.696-.01-7.392.005-11.088.011-3.986-.006-7.973-.02-11.96-.022-7.808-.017-15.617-.003-23.426a7106 7106 0 0 0 .005-21.772q-.001-2.75-.004-5.501c-.015-17.2.002-34.4.03-51.6q.03-22.143-.006-44.288c-.027-17.138-.037-34.275-.022-51.413l.005-5.481.002-2.724q.005-9.51-.015-19.017-.022-11.585.017-23.171c.013-3.942.018-7.884.001-11.826q-.02-5.41.02-10.821c.01-1.926-.008-3.852-.025-5.777l.04-3.462.002-2.987c1.742-7.52 7.274-8.436 14.068-8.335"/><path fill="#42489b" d="m13.441 87.37 2.581-.021c2.868-.018 5.735-.001 8.603.016q3.107-.008 6.215-.023c5.702-.021 11.405-.011 17.107.005 6.146.01 12.292-.007 18.438-.02 11.348-.021 22.695-.02 34.043-.006q15.723.02 31.447.01l2.106-.001 8.461-.005c26.47-.015 52.937-.001 79.406.026q35.286.033 70.572-.003c26.42-.026 52.84-.037 79.258-.022l8.447.005h2.101c10.476.007 20.953 0 31.43-.012q17.866-.023 35.731.016c6.081.013 12.161.018 18.242.002q8.341-.022 16.683.02 3.026.008 6.05-.01c2.733-.015 5.464 0 8.197.024l2.396-.035c6.058.103 6.287.906 11.045 5.664v124H238v46c-4 5-4 5-7 6-2.964.103-5.905.148-8.869.147l-2.78.012q-4.634.014-9.267.018l-6.627.02q-9.015.025-18.03.036-5.63.008-11.258.018-15.583.025-31.166.039-4.042.001-8.085.005l-2.03.002c-10.857.008-21.714.033-32.57.066a12422 12422 0 0 1-33.437.054c-6.259.003-12.517.012-18.775.037q-8.827.033-17.655.017-3.243-.001-6.486.019c-2.948.018-5.894.01-8.842-.002l-2.603.033c-3.999-.043-6.043-.228-9.528-2.364-3.422-3.704-3.124-7.053-3.146-11.9l-.013-2.088c-.014-2.315-.02-4.63-.026-6.944l-.025-4.972a8087 8087 0 0 1-.056-16.34l-.016-5.621c-.02-7.795-.04-15.59-.05-23.384-.018-11.175-.05-22.35-.108-33.526q-.056-11.783-.063-23.567a2360 2360 0 0 0-.048-14.08q-.044-6.621-.025-13.242 0-2.43-.026-4.861c-.022-2.212-.014-4.422.002-6.635l-.01-3.751c1.486-7.808 7.001-8.98 14.06-8.875"/><path fill="#fe4d57" d="M230 88c35.203-.114 70.406-.203 105.609-.255l12.464-.02 2.506-.004c13.398-.021 26.797-.061 40.195-.107q20.617-.069 41.233-.084 12.725-.01 25.451-.07a3170 3170 0 0 1 17.444-.028 1207 1207 0 0 0 10.069-.028c3.638-.025 7.274-.019 10.912-.005l3.222-.044 2.954.03 2.544-.006C507 88 507 88 512 93v99H238l-1-98c-2.963-3.993-2.963-3.993-7-6"/><path fill="#fe4d57" d="M238 217h274v78H0v-33l4 5c3.335 1.668 7.081 1.144 10.749 1.14l2.778.009q4.638.012 9.275.012l6.627.015q9.021.019 18.043.024 5.632.004 11.264.012 15.59.019 31.178.026h2.017l2.021.001 4.055.001 2.031.001q16.296.008 32.591.045 16.725.035 33.449.037 9.393 0 18.785.025 8.835.023 17.668.01 3.245-.002 6.49.013c2.95.013 5.899.007 8.849-.004l2.605.025c4.658-.039 7.747-.354 11.525-3.392 7.162-14.323 1.652-31.99 2-48"/><path fill="#f4f3f3" d="M0 372h512v47c-5.571 5.571-5.571 5.571-11.045 5.665l-2.396-.036-2.582.022c-2.868.019-5.734.001-8.602-.016q-3.107.009-6.215.024c-5.702.02-11.405.01-17.108-.005-6.146-.012-12.291.006-18.437.02-11.348.021-22.695.019-34.043.005q-15.723-.02-31.447-.01l-2.106.001-8.462.005c-26.468.015-52.936.001-79.405-.025a34586 34586 0 0 0-70.572.002c-26.419.027-52.839.037-79.258.022l-8.447-.005-2.101-.001q-15.714-.007-31.43.013-17.865.024-35.731-.016c-6.081-.013-12.161-.018-18.242-.002q-8.342.022-16.683-.02a718 718 0 0 0-6.051.01c-2.732.015-5.463 0-8.196-.024l-2.396.036C4.987 424.561 4.758 423.758 0 419z"/><path fill="#f5f3f3" d="m0 262 4 5c3.19 1.595 6.645 1.143 10.148 1.139l2.596.008c2.902.009 5.804.01 8.706.011l6.267.015q8.647.02 17.294.028 9.31.013 18.622.034 16.143.033 32.288.056 16.937.024 33.873.056l2.125.004 10.685.02q37.867.071 75.733.132 36.794.058 73.586.125l2.29.004 22.768.041 46.382.083 2.155.004q71.241.126 142.482.24v26H0z"/><path fill="#fe4d56" d="M0 346h512v26H0z"/><path fill="#fe4c56" d="M0 398h512v21c-5.571 5.571-5.571 5.571-11.045 5.665l-2.396-.036-2.582.022c-2.868.019-5.734.001-8.602-.016q-3.107.009-6.215.024c-5.702.02-11.405.01-17.108-.005-6.146-.012-12.291.006-18.437.02-11.348.021-22.695.019-34.043.005q-15.723-.02-31.447-.01l-2.106.001-8.462.005c-26.468.015-52.936.001-79.405-.025a34586 34586 0 0 0-70.572.002c-26.419.027-52.839.037-79.258.022l-8.447-.005-2.101-.001q-15.714-.007-31.43.013-17.865.024-35.731-.016c-6.081-.013-12.161-.018-18.242-.002q-8.342.022-16.683-.02a718 718 0 0 0-6.051.01c-2.732.015-5.463 0-8.196-.024l-2.396.036C4.987 424.561 4.758 423.758 0 419z"/><path fill="#f5f5f5" d="M0 321h512v25H0z"/><path fill="#fe4c56" d="M230 88c35.203-.114 70.406-.203 105.609-.255l12.464-.02 2.506-.004c13.398-.021 26.797-.061 40.195-.107q20.617-.069 41.233-.084 12.725-.01 25.451-.07a3170 3170 0 0 1 17.444-.028 1207 1207 0 0 0 10.069-.028c3.638-.025 7.274-.019 10.912-.005l3.222-.044 2.954.03 2.544-.006C507 88 507 88 512 93v21H238l-1-20c-2.963-3.993-2.963-3.993-7-6"/><path fill="#f4f2f3" d="M238 217h274v26H238z"/><path fill="#f4f1f1" d="M238 166h274v26H238z"/><path fill="#f4f3f3" d="M238 114h274v26H238z"/><path fill="#fe4b55" d="M238 192h274v25H238z"/><path fill="#5d529b" d="M14.023 87.64c.922-.004 1.844-.006 2.795-.009 3.097-.005 6.193.012 9.29.028h6.652c6.027-.002 12.053.016 18.08.037 6.295.018 12.59.02 18.886.024q15.853.013 31.706.053a23703 23703 0 0 0 34.69.064l10.1.012Q188.11 87.898 230 88v1l-3.487.004a48624 48624 0 0 0-91.996.203l-2.027.006c-10.835.031-21.67.048-32.506.06q-16.673.019-33.344.081c-6.244.023-12.49.04-18.733.038q-8.81 0-17.621.05-3.24.012-6.477.004c-2.942-.007-5.882.011-8.824.035l-2.606-.024c-4.76.052-4.76.052-8.815 2.388A158 158 0 0 0 0 97c.48-5.414.48-5.414 2.483-7.677 3.794-1.995 7.315-1.727 11.54-1.684"/><path fill="#e4e5ec" d="M23 108h2l.562 2.375c1.278 3.019 1.278 3.019 5.063 3.937L34 115l-2 1.562c-2.656 3.238-2.313 5.364-2 9.438l-3.188-1.125c-3.998-.918-5.303-.789-8.812 1.125l.25-3.25c.112-3.79.112-3.79-2.25-6.188L14 115l3.375-.688c3.785-.918 3.785-.918 5.063-3.937z"/><path fill="#e5e5ed" d="M142 123h2l.562 2.375c1.278 3.019 1.278 3.019 5.063 3.937L153 130l-2 1.562c-2.656 3.238-2.313 5.364-2 9.438l-3.188-1.125c-3.998-.918-5.303-.789-8.812 1.125l.25-3.25c.112-3.79.112-3.79-2.25-6.188L133 130l3.375-.688c3.785-.918 3.785-.918 5.063-3.937z"/><path fill="#e6e6ed" d="M142 215h2l.625 2.438L146 220c3.053.898 3.053.898 6 1v3l-3 2c-.25 3.584-.25 3.584 0 7l-3.188-1.125c-3.998-.918-5.303-.789-8.812 1.125l.25-3.25c.112-3.79.112-3.79-2.25-6.188L133 222c1-1 1-1 4.562-1.062L141 221z"/><path fill="#e6e6ed" d="M23 200h2l1 6h7v3l-3 2c-.25 3.584-.25 3.584 0 7l-3.188-1.125c-3.998-.918-5.303-.789-8.812 1.125l.25-3.25c.112-3.79.112-3.79-2.25-6.188L14 207c1-1 1-1 4.562-1.062L22 206z"/><path fill="#e7e6ed" d="M47 123c1.5 1.312 1.5 1.312 3 3v3h7v3l-3 2c-.25 3.584-.25 3.584 0 7l-1.75-.5c-3.64-.809-6.723-.508-10.25.5l.25-3.25c.112-3.79.112-3.79-2.25-6.188L38 130l3.375-.688c3.785-.918 3.785-.918 5.063-3.937z"/><path fill="#e7e7ed" d="m213 200 3 1 1 5h7c-1.75 3.875-1.75 3.875-4 5v7l-7-2-2 2h-3c.875-4.75.875-4.75 2-7l-1.938-.812C206 209 206 209 205 206h7z"/><path fill="#ebebef" d="m118 231 3 1 1 5h7v2l-2 1.188c-2.426 1.777-2.426 1.777-2.25 5.5L125 249l-1.688-1.062c-3.755-1.523-6.595-.177-10.312 1.062l1-8-4-2v-2h7z"/><path fill="#e8e8ee" d="M190 215c1.5 1.312 1.5 1.312 3 3v3h7c-1.75 3.875-1.75 3.875-4 5l1 7a85 85 0 0 1-7-2c-2.657.879-2.657.879-5 2l.25-3.312c.176-3.723.176-3.723-2.25-5.5L181 223v-2h7z"/><path fill="#e8e8ee" d="m190 123 2 1c.625 2.562.625 2.562 1 5h7c-.812 1.938-.812 1.938-2 4l-3 1 2 7a85 85 0 0 1-7-2c-2.657.879-2.657.879-5 2l.25-3.312c.176-3.723.176-3.723-2.25-5.5L181 131v-2h7z"/><path fill="#e8e8ee" d="M166 108c1.5 1.312 1.5 1.312 3 3v3h7c-.812 1.938-.812 1.938-2 4l-3 1 1 1.812c1 2.188 1 2.188 1 5.188a85 85 0 0 1-7-2c-2.657.879-2.657.879-5 2l.25-3.25c.112-3.79.112-3.79-2.25-6.188L157 115c1-1 1-1 4.062-1.062L164 114z"/><path fill="#e8e8ee" d="M71 108c1.5 1.312 1.5 1.312 3 3v3h7c-.812 1.938-.812 1.938-2 4l-3 1 2 7a85 85 0 0 1-7-2c-2.657.879-2.657.879-5 2l.25-3.312c.176-3.723.176-3.723-2.25-5.5L62 116v-2h7z"/><path fill="#ebebef" d="M166 231h2l1 6h7c-1.152 2.468-2.048 4.048-4 6 .322 3.099.322 3.099 1 6l-2.25-1.062c-2.949-1.006-3.905-.981-6.75.062l-3 1 .25-3.312c.176-3.723.176-3.723-2.25-5.5L157 239v-2h7z"/><path fill="#e8e8ee" d="m95 215 2 1c.625 2.562.625 2.562 1 5h7c-1.75 3.875-1.75 3.875-4 5v7l-7-2-2 2h-3l2-7-1.938-.812C87 224 87 224 86 221h7l.438-2.438C94 216 94 216 95 215"/><path fill="#e8e8ee" d="M166 200c1.5 1.312 1.5 1.312 3 3v3h7c-.812 1.938-.812 1.938-2 4l-3 1 1 1.812c1 2.188 1 2.188 1 5.188l-3.188-1.125c-3.998-.918-5.303-.789-8.812 1.125l.25-3.312c.176-3.723.176-3.723-2.25-5.5L157 208v-2h7z"/><path fill="#e8e8ee" d="M71 200c1.5 1.312 1.5 1.312 3 3v3h7c-1.75 3.875-1.75 3.875-4 5l1 7a85 85 0 0 1-7-2c-2.657.879-2.657.879-5 2l.25-3.312c.176-3.723.176-3.723-2.25-5.5L62 208v-2h7z"/><path fill="#ebeaee" d="M166 139h2l1 6h7c-1.152 2.468-2.048 4.048-4 6 .322 3.099.322 3.099 1 6l-2.25-1.062c-2.949-1.006-3.905-.981-6.75.062l-3 1 .25-3.312c.176-3.723.176-3.723-2.25-5.5L157 147v-2h7z"/><path fill="#ecebf0" d="M71 231h2l1 6h7c-1 3-1 3-2.625 4.312-1.748 1.741-1.748 1.741-1.063 4.876L78 249l-2.25-1.062c-2.977-1.015-3.874-.959-6.75.062l-4 1 1-7-2-1.375L62 239v-2h7z"/><path fill="#e9e9ee" d="M118 200h2l.562 2.375c1.278 3.019 1.278 3.019 5.063 3.937L129 207l-2 1.562c-2.656 3.238-2.313 5.364-2 9.438l-3.188-1.125c-3.998-.918-5.303-.789-8.812 1.125l.188-3.312c.184-3.606.184-3.606-1.688-5.5L110 208v-2h7z"/><path fill="#ecebef" d="m94 154 3 1 1 5h7c-1 3-1 3-4 5l1 7-2.25-1.062c-2.977-1.015-3.874-.959-6.75.062l-4 1 1-7-2-1.375L86 162v-2h7z"/><path fill="#edebef" d="m213 139 3 1 1 5h7c-1 3-1 3-4 5l1 7-2.25-1.062c-2.977-1.015-3.874-.959-6.75.062l-4 1 1-7-2-1.375-2-1.625v-2h7z"/><path fill="#ecebef" d="M71 139h2l1 6h7c-1 3-1 3-4 5l1 7-2.25-1.062c-2.977-1.015-3.874-.959-6.75.062l-4 1 1-7-2-1.375L62 147v-2h7z"/><path fill="#e8e8ee" d="m95 123 2 1c.625 2.562.625 2.562 1 5h7c-1.75 3.875-1.75 3.875-4 5v7l-1.75-1.062c-2.684-1.119-3.556-.864-6.25.062l-4 1 2-7-1.938-.812C87 132 87 132 86 129h7l.438-2.438C94 124 94 124 95 123"/><path fill="#e8e8ee" d="m214 108 2 1c.625 2.562.625 2.562 1 5h7c-1.75 3.875-1.75 3.875-4 5v7l-1.75-1.062c-2.684-1.119-3.556-.864-6.25.062l-4 1a85 85 0 0 1 2-7l-1.938-.812C206 117 206 117 205 114h7l.438-2.438C213 109 213 109 214 108"/><path fill="#e9e9ee" d="M118 108h2l.562 2.375c1.278 3.019 1.278 3.019 5.063 3.937L129 115l-2 1.562c-2.656 3.238-2.313 5.364-2 9.438l-3.188-1.125c-3.998-.918-5.303-.789-8.812 1.125l.188-3.312c.184-3.606.184-3.606-1.688-5.5L110 116v-2h7z"/><path fill="#ebebef" d="m190 184 2 1c.625 3.062.625 3.062 1 6h7v2l-5 2 1 2.312c1 2.688 1 2.688 1 5.688l-2.188-1.062c-4.133-1.378-6.784-.281-10.812 1.062l2-8-5-2v-2h7l.438-2.938C189 185 189 185 190 184"/><path fill="#edebef" d="M190 154h2l1 6h7c-1 3-1 3-4 5l1 7-2.25-1.062c-2.977-1.015-3.874-.959-6.75.062l-4 1 1-7-2-1.375-2-1.625v-2h7l.438-1.875C189 156 189 156 190 154"/><path fill="#edebef" d="M142 154h2l.625 2.438L146 159c3.053.898 3.053.898 6 1l-2 4h-2l1 8-3.188-1.125c-3.998-.918-5.303-.789-8.812 1.125l.188-3.312c.184-3.606.184-3.606-1.688-5.5L134 162v-2l2.875-.188L140 159c1.453-2.463 1.453-2.463 2-5"/><path fill="#ecebef" d="M47 154h2l1 6h7c-1.75 3.875-1.75 3.875-4 5l1 7-2.25-1.062c-2.949-1.006-3.905-.981-6.75.062l-3 1 .25-3.312c.176-3.723.176-3.723-2.25-5.5L38 162v-2h7z"/><path fill="#edebef" d="M23 139h2l.625 2.438L27 144c3.053.898 3.053.898 6 1l-2 4h-2l1 8-3.188-1.125c-3.998-.918-5.303-.789-8.812 1.125l1-8-4-2v-2l2.875-.188L21 144c1.453-2.463 1.453-2.463 2-5"/><path fill="#edecf0" d="m213 231 3 1 1 5h7v2c-2 1.625-2 1.625-4 3l1 7-2.188-1.062c-4.133-1.378-6.784-.281-10.812 1.062l1-7-2-1.375-2-1.625v-2h7z"/><path fill="#ededf0" d="M23 231h2l.625 2.438L27 236c3.053.898 3.053.898 6 1l-2 4h-2l1 8-3.188-1.125c-3.998-.918-5.303-.789-8.812 1.125l1-8-4-2v-2l2.875-.188L21 236c1.453-2.463 1.453-2.463 2-5"/><path fill="#e9e9ef" d="M47 215c1.5 1.312 1.5 1.312 3 3v3h7c-.812 1.938-.812 1.938-2 4l-3 1 1 1.812C54 230 54 230 54 233l-3.188-1.125c-3.998-.918-5.303-.789-8.812 1.125l.25-3.25c.112-3.79.112-3.79-2.25-6.188L38 222l3.375-.688c3.785-.918 3.785-.918 5.063-3.937z"/><path fill="#ebebef" d="m71 169 2 1c.625 3.062.625 3.062 1 6h7v2l-5 2 1 2.312C78 185 78 185 78 188l-2.188-1.062C71.679 185.56 69.028 186.657 65 188l2-8-1.938-.875C63 178 63 178 62 176h7l.438-2.938C70 170 70 170 71 169"/><path fill="#eaeaef" d="m23 170 3 1 1 5h6l-1 3-2 1v8l-1.688-1.062c-3.755-1.523-6.595-.177-10.312 1.062l.293-6.055L18 180l-3-2v-2h6z"/><path fill="#edecf0" d="M118 139h2l2 6h7v2l-2 1.188c-2.426 1.777-2.426 1.777-2.25 5.5L125 157l-1.688-1.062c-3.755-1.523-6.595-.177-10.312 1.062l1-7-2-1.375-2-1.625v-2h7z"/><path fill="#ebebef" d="M47 185h2l1 6h7c-1 3-1 3-2.625 4.312-1.748 1.741-1.748 1.741-1.063 4.876L54 203l-1.688-1.062c-3.755-1.523-6.595-.177-10.312 1.062l1-8-1.938-.875C39 193 39 193 38 191h7z"/><path fill="#ebeaef" d="m214 169 2 1c.625 3.062.625 3.062 1 6h7c-1.375 2-1.375 2-3 4h-2l2 8c-4.75-1.875-4.75-1.875-7-3l-1.875 1.5C210 188 210 188 208 188c.523-2.763 1.109-5.326 2-8l-5-2v-2h7l.438-2.938C213 170 213 170 214 169"/><path fill="#ecebf0" d="M166 170h2l1 6h7v2l-3 2c-.363 1.977-.363 1.977-.188 4.125L173 188l-1.625-1.062c-3.138-1.239-5.137-.712-8.375.062l-2 1 1-8-1.938-.875C158 178 158 178 157 176h7z"/><path fill="#ececf0" d="m118 170 3 1c.688 2.062.688 2.062 1 4l7 1c-1.375 2-1.375 2-3 4h-2l1 8-1.688-1.062c-3.755-1.523-6.595-.177-10.312 1.062l.293-6.055L113 180l-3-2v-2h7z"/><path fill="#edecf0" d="m94 185 3 1 1 5h7c-1.375 2-1.375 2-3 4h-2l2 8-2.312-1c-4.273-1.59-6.644-.749-10.688 1 .523-2.763 1.109-5.326 2-8l-5-2v-2h7z"/><path fill="#edecf0" d="M142 185h2l1 6h7l-1 3-2 1v8l-1.688-1.062c-3.755-1.523-6.595-.177-10.312 1.062l.293-6.055L137 195l-3-2v-2h7l-.062-2.438C141 186 141 186 142 185"/><path fill="#6263a8" d="m3 89 3 1-1.875 1.812C1.863 94.008 1.863 94.008 0 97c.75-5.75.75-5.75 3-8"/><path fill="#d1d0e1" d="m190 184 2 1v2l-3 1z"/><path fill="#d1d0e1" d="m71 169 2 1v2l-3 1z"/></svg>